HIERARCHY
ROOT HipCenter
{
    OFFSET 0.0 0.0 -0.0
    CHANNELS 6 Xposition Yposition Zposition Zrotation Xrotation Yrotation
    JOINT Spine
    {
        OFFSET 0.0 11.141894340515137 0.0
        CHANNELS 3 Zrotation Xrotation Yrotation
        JOINT ShoulderCenter
        {
            OFFSET 0.0 30.90260124206543 0.0
            CHANNELS 3 Zrotation Xrotation Yrotation
            JOINT LeftShoulder
            {
                OFFSET 18.54991912841797 0.0 0.0
                CHANNELS 3 Zrotation Xrotation Yrotation
                JOINT LeftElbow
                {
                    OFFSET 24.326644897460938 0.0 0.0
                    CHANNELS 3 Zrotation Xrotation Yrotation
                    JOINT LeftWrist
                    {
                        OFFSET 27.56737518310547 0.0 0.0
                        CHANNELS 3 Zrotation Xrotation Yrotation
                        JOINT LeftHand
                        {
                            OFFSET 2.7594430446624756 0.0 0.0
                            CHANNELS 3 Zrotation Xrotation Yrotation
                            End Site
                            {
                                OFFSET 1.1037771701812744 0.0 0.0
                            }
                        }
                    }
                }
            }
            JOINT RightShoulder
            {
                OFFSET -18.54991912841797 0.0 0.0
                CHANNELS 3 Zrotation Xrotation Yrotation
                JOINT RightElbow
                {
                    OFFSET -24.326644897460938 0.0 0.0
                    CHANNELS 3 Zrotation Xrotation Yrotation
                    JOINT RightWrist
                    {
                        OFFSET -27.56737518310547 0.0 0.0
                        CHANNELS 3 Zrotation Xrotation Yrotation
                        JOINT RightHand
                        {
                            OFFSET -2.7594430446624756 0.0 0.0
                            CHANNELS 3 Zrotation Xrotation Yrotation
                            End Site
                            {
                                OFFSET -1.1037771701812744 0.0 0.0
                            }
                        }
                    }
                }
            }
            End Site
            {
                OFFSET 0.0 12.361042022705078 0.0
            }
        }
    }
    JOINT LeftHip
    {
        OFFSET 21.544754028320312 0.0 0.0
        CHANNELS 3 Zrotation Xrotation Yrotation
        JOINT LeftKnee
        {
            OFFSET 0.0 -35.15361785888672 0.0
            CHANNELS 3 Zrotation Xrotation Yrotation
            JOINT LeftAnkle
            {
                OFFSET 0.0 -39.301700592041016 0.0
                CHANNELS 3 Zrotation Xrotation Yrotation
                JOINT LeftFoot
                {
                    OFFSET 0.0 -9.149667739868164 0.0
                    CHANNELS 3 Zrotation Xrotation Yrotation
                    End Site
                    {
                        OFFSET 0.0 0.0 3.6598663330078125
                    }
                }
            }
        }
    }
    JOINT RightHip
    {
        OFFSET -21.544754028320312 0.0 0.0
        CHANNELS 3 Zrotation Xrotation Yrotation
        JOINT RightKnee
        {
            OFFSET 0.0 -35.15361785888672 0.0
            CHANNELS 3 Zrotation Xrotation Yrotation
            JOINT RightAnkle
            {
                OFFSET 0.0 -39.301700592041016 0.0
                CHANNELS 3 Zrotation Xrotation Yrotation
                JOINT RightFoot
                {
                    OFFSET 0.0 -9.149667739868164 0.0
                    CHANNELS 3 Zrotation Xrotation Yrotation
                    End Site
                    {
                        OFFSET 0.0 0.0 3.6598663330078125
                    }
                }
            }
        }
    }
}
MOTION
Frames: 10
Frame Time: 0.03333333333333333
13.799999237060547 -15.5 18.600000381469727 17.44718469361088 -8.780304804037659 -131.31814965602229 2.37069641495617 -14.317694179270973 3.7029336168897826 1.1904220241824591e-07 -2.5799086169445125e-08 14.305190359694251 126.1781321888059 31.963250732533908 141.77539403522266 -3.402904342290272e-06 9.097909520767706e-07 31.06532390818078 -3.675362823760119e-05 -88.25421502310019 41.216431386437776 3.1805546814635168e-15 -3.1805546814635168e-15 8.827812596100317e-32 -125.43219470203982 -12.097804005950625 176.2068258603638 -3.1832554904352472e-06 1.3893401028060948e-06 -61.390771254048275 -179.99997674647287 -79.03094258790387 160.64023873280803 0.0 3.1805546814635168e-15 0.0 32.87192717293081 -52.59250934877035 48.08647571211723 10.94756015860348 25.555340404310105 -50.514699367118816 152.64979552255753 -65.77972729293515 -151.4031537375866 -6.3611093629270335e-15 -6.3611093629270335e-15 -1.5902773407317588e-15 -0.5332107892726168 12.558175097364007 28.836765560327226 -0.2960996508483771 -1.6217093185467122 -0.111046999709157 -65.3022157149951 -74.85534362541904 -68.53785575750683 3.1805546814635176e-15 0.0 0.0
6.300000190734863 -13.899999618530273 18.19999885559082 29.809116667131605 -6.190144024500238 -129.4619544587174 4.97271191241957 -18.820537516050614 2.949807908255867 8.695356422955716e-08 -1.1386984695250453e-06 15.700219284918223 129.12191312032647 32.248348357195816 141.32045021138393 -2.4907909592047434e-06 -2.736569554736118e-06 33.31795821225061 179.99999684121863 -85.04544241642071 -139.34707881792522 -9.54166404439055e-15 2.648343778830095e-31 -3.1805546814635168e-15 -124.59866658983837 -10.588989092890875 179.16945893827491 -1.5295607540871773e-06 -2.260006989948707e-06 -66.1434332125953 -179.9999878602992 -81.41529062364609 160.74175206657662 6.3611093629270335e-15 -1.590277340731758e-15 7.951386703658792e-15 40.193827591868185 -60.83612567656034 56.27151899817734 19.069883606793443 24.627933605944285 -50.90901656100282 164.75198274547017 -64.24493905901322 -138.8022310994059 0.0 0.0 -2.782985346280577e-15 4.780209313227368 13.397989734570443 29.082952721486848 -0.11972333574941921 -12.72549845448788 -1.5132229519229699 -133.21466503751915 -69.77589069668981 -141.6701281499219 0.0 0.0 0.0
-0.10000000149011612 -10.699999809265137 18.299999237060547 38.41805793533532 -5.146013463779374 -126.18280341858697 5.16629246919418 -20.34456505826507 2.6899499205265767 -9.262182481589141e-08 3.1130280225842286e-07 16.588318573907713 124.20022236427086 28.563545505125894 146.57796719507982 1.3043892998509268e-06 -4.21150106391913e-06 34.79172743256587 -179.99975026351515 -89.1397795053139 -138.99744205461374 -3.1805546814635168e-15 8.827812596100317e-32 -3.1805546814635168e-15 -124.44878062806511 -6.534068498285222 -177.68305279193785 9.039516321512352e-07 2.5708737087556315e-06 -66.14789538165202 -179.9999843457244 -73.69148792246632 158.45016891944573 0.0 0.0 -1.5902773407317584e-15 36.93842213987655 -64.1555956062663 52.89878375706488 19.245030129219657 18.813935897941167 -37.54726491764464 -155.3235576430865 -58.50705231899685 -95.30990382582084 0.0 0.0 -1.5902773407317584e-15 7.6509495927348325 10.07817967246314 28.07171575360427 -0.020901447780275317 -12.025010183301614 -1.609813721329136 -151.56232514201997 -52.422663237605775 -163.1416590033087 0.0 0.0 3.1805546814635168e-15
-6.400000095367432 -8.299999237060547 18.099998474121094 40.60129802028757 -3.6203528898290425 -124.02501956474774 5.5881613464383335 -19.298386139635817 2.4923564218328105 -3.6308259117206015e-07 1.9508233789880615e-07 15.00480753503857 119.70968159373429 28.239623189684554 148.4218389587495 8.878375237314108e-07 2.9399052768736804e-07 34.778710849102616 -8.450976065054387e-06 -88.37596178417373 39.121835977089276 -6.3611093629270335e-15 6.3611093629270335e-15 -3.1805546814635164e-15 -125.51283579003095 -7.052115368693271 -174.8336256646087 2.569197890497047e-07 2.053832266273928e-07 -60.065625384808676 -179.9999903737685 -77.53070758733895 157.53263913571197 1.7655625192200634e-31 3.180554681463516e-15 -6.361109362927032e-15 25.577586991377537 -60.714536193255945 35.21053578504247 15.545791150429572 17.019410191093087 -28.889814232946517 -157.60072211335373 -55.12940991841852 -102.07929981853847 -6.3611093629270335e-15 8.827812596100317e-32 -1.5902773407317584e-15 5.148090425361471 5.0923630503047805 28.14562285405854 2.672676394800983 6.044283252319083 1.0596071124653135 -92.86514094487394 -46.778963626950954 -107.27888395766935 3.1805546814635168e-15 -6.361109362927033e-15 9.144094709207609e-15
-12.5 -6.599999904632568 18.099998474121094 39.143985326817294 -2.5817553272524383 -118.33525880271213 4.77006372363834 -18.599840131992927 2.0437375717113637 1.0974407556654786e-06 -1.0871482967099222e-06 10.7806525097237 118.2008627677046 27.619264652124315 149.32548335374278 3.934732449462483e-06 6.82197873124297e-08 34.691092996059446 -179.9999913797769 -87.5281304586276 -141.34809140969978 -9.541664044390549e-15 3.1805546814635164e-15 2.648343778830095e-31 -125.12199050668005 -4.34145892588424 -168.06995779875533 -4.13167572109997e-06 1.0445209079697492e-06 -54.16042547018648 -179.99998191247488 -71.1287880274684 155.9072661928352 -6.3611093629270335e-15 -3.531125038440127e-31 6.3611093629270335e-15 7.41794207817007 -53.03716519585837 9.19871311256386 9.588200267140984 13.544527797297905 -15.44300566909379 -144.93076991589854 -50.38720368013922 -99.14081132908346 3.1805546814635168e-15 -6.620859447075238e-32 -2.3854160110976376e-15 -1.2093276795148564 0.5453060544346342 28.16929693153885 26.359742212157688 33.28523501877269 -3.272975063161758 -80.5534450122579 -29.223664130868762 -62.23131083660894 0.0 0.0 -2.385416011097637e-15
-17.80000114440918 -5.5 17.899999618530273 36.55963146934652 -1.0340851105463593 -114.14300792096206 5.334083718262281 -18.109134476095957 1.927267767293321 9.441655354417589e-07 -4.802715010356562e-07 6.993603128247615 119.49491465344133 29.361515289217994 149.41081690715973 -6.626218521395439e-07 -3.500164056787051e-07 36.789632273410454 179.99992103741636 -88.38816187265418 -141.92191059635448 3.1805546814635168e-15 3.1805546814635168e-15 6.3611093629270335e-15 -124.84525233425428 -1.5793079033463095 -161.3979718481602 5.890264564963078e-07 2.1277144422392953e-07 -48.50423658057991 -179.99999422100976 -66.10968341973816 155.69079896452044 6.3611093629270335e-15 6.3611093629270335e-15 1.590277340731758e-15 0.07485978125622482 -43.97312910391053 -4.398967551210116 5.182637689594305 10.774269541823285 -8.984481548716312 -149.7909217436349 -57.173889250838634 -113.89135296680057 0.0 0.0 -1.5902773407317584e-15 -5.376046514371445 -4.4026503768999925 27.337738298932706 66.0160171485322 50.97772916387224 -32.27847856792841 -73.88777130342143 -40.509986470594015 -38.223376773409065 4.7708320221952736e-15 -1.3241718894150476e-31 -3.180554681463516e-15
-23.0 -5.099999904632568 17.700000762939453 32.11482859346474 5.215071655871551e-07 -112.67862696275299 5.968089718471712 -16.79549683891697 1.9733419224205146 -7.330794355336062e-08 -5.075652944784853e-07 5.41499834609942 119.60992947191725 30.464329252926163 149.70734769590325 -1.6207449181102675e-07 -5.508840923972507e-07 41.3755061993442 179.99999248790468 -77.09093415783522 -140.6886375596675 -3.1805546814635168e-15 3.1805546814635168e-15 8.827812596100317e-32 -125.15793249985062 1.0384061087103054 -156.1368552856242 -4.205087215806908e-09 4.784016865288873e-07 -41.917190258921586 -179.99998944830259 -60.87560169592343 153.70950106873713 -6.3611093629270335e-15 0.0 0.0 -3.1311117019471295 -32.652235495627494 -12.778342837633334 2.286045550412085 6.985037798568199 -4.564217506439641 -149.46278098148608 -58.14455752795036 -120.36789112434288 0.0 0.0 -7.951386703658792e-16 -9.5689216406041 -12.07516490960144 23.284994411916298 63.124223327776185 53.33352747378037 -23.687975728884574 30.649188003398272 70.76364663558776 -45.657344801354256 0.0 0.0 6.3611093629270335e-15
-28.0 -4.900000095367432 17.399999618530273 27.25532157553249 1.0288744917309742 -111.26119757602305 5.623141845142386 -14.983287886613052 1.40702272155754 6.158384647132746e-07 -6.769664281768982e-07 3.6758087040298864 118.67702142910822 28.193243290367413 150.26246435863115 -4.2556424483006126e-07 5.455743233717916e-06 47.21283565852563 179.9999926869941 -74.9180516459961 -141.54448178735655 1.5902773407317582e-15 9.541664044390549e-15 -1.3241718894150476e-31 -125.56919286179593 4.21677387774231 -152.69724422620098 -5.20257913030756e-07 -1.5167362758809985e-06 -36.18579426871674 179.99999074347696 -59.53927291340249 151.09767902762144 -6.361109362927032e-15 -8.827812596100317e-32 1.590277340731758e-15 -5.30979536569034 -21.505078094495328 -19.1330507390553 0.635944709687057 3.2162512666252803 -1.571590626133641 -148.42676674458227 -61.239035021231444 -125.91372292143656 1.7655625192200634e-31 -6.361109362927035e-15 3.1805546814635176e-15 -12.92092156827514 -23.73712658041087 13.782064979369599 35.901726200140615 51.352414673358794 5.188930780619652 43.454138487828054 67.85735503641386 -37.1840544661983 -3.1805546814635164e-15 0.0 0.0
-32.60000228881836 -5.400000095367432 16.899999618530273 23.131408970512048 2.0453237232985098 -107.80285719515913 4.106809868129838 -13.360484153220352 0.6417225374691132 -5.560025711007452e-07 2.0921170627950515e-07 0.346279327832102 117.47979407516057 26.3979875962454 152.62321877831602 -3.8669982895498544e-06 1.9494308645789225e-06 49.8288048736334 -179.9999818882758 -81.13891493196046 -137.27840547399245 9.541664044390549e-15 -5.29668755766019e-31 -6.361109362927033e-15 -125.49748690468478 6.5976604784125925 -150.40641156650383 -1.964025773567209e-06 -1.2027113512516172e-06 -32.215533981544205 179.99999745753743 -65.54198628276336 150.24711760544258 -6.3611093629270335e-15 1.7655625192200634e-31 -3.1805546814635168e-15 -8.21791027294075 -13.658308055937788 -22.967120637759876 0.30889066148995786 3.1999450094503765 -1.1049394578828158 -156.09631507177428 -67.29985449458593 -139.36072870394813 -6.3611093629270335e-15 0.0 0.0 -11.2315499098808 -34.668615580523024 4.176036046238851 21.334916008415824 66.81976674472952 20.627894633858464 56.13451532170602 63.728280042912345 -44.43607118516092 -3.1805546814635176e-15 -3.1805546814635176e-15 -6.361109362927035e-15
-37.0 -6.599999904632568 16.0 20.55605204150084 4.119628935832319 -104.5538536797083 3.9493260243430126 -12.285569670706785 -0.19754109024548364 -7.163901412599125e-07 2.310850095905819e-07 -2.4924633282699546 115.37403611288568 25.08767448659702 156.7173441175389 2.4973699923103965e-06 -1.950026056561889e-06 49.7866564260679 179.9999916384039 -80.4312872903564 -139.34354769358717 1.5902773407317584e-15 -3.1805546814635168e-15 4.4139062980501586e-32 -125.419321340788 8.842011075107244 -150.0387039881265 6.559493335122973e-06 -3.187261614656039e-06 -29.438354766094044 -179.99999202159006 -66.19649384128287 150.81835064196426 0.0 0.0 -4.770832022195275e-15 -8.954383774353142 -7.712723904844171 -25.801949068182466 0.020822612539352116 4.615310474597564 -0.9450742797756533 -166.59733744497962 -71.3062678548522 -156.21654190605958 6.3611093629270335e-15 0.0 0.0 -2.903494758426181 -46.523864121937734 -1.6359044899174666 -11.921497284422863 82.81348563946784 51.496955340673225 91.37648707925706 31.665626748617672 -81.92607219785393 -4.373262687012335e-15 0.0 0.0
